<?xml version="1.0" encoding="utf-8"?>
<!-- Generator: Adobe Illustrator 16.0.0, SVG Export Plug-In . SVG Version: 6.00 Build 0)  -->
<!DOCTYPE svg PUBLIC "-//W3C//DTD SVG 1.1//EN" "http://www.w3.org/Graphics/SVG/1.1/DTD/svg11.dtd">
<svg version="1.1" id="Layer_1" xmlns="http://www.w3.org/2000/svg" xmlns:xlink="http://www.w3.org/1999/xlink" x="0px" y="0px"
	 width="500px" height="358px" viewBox="0 0 500 358" enable-background="new 0 0 500 358" xml:space="preserve">
<g>
	<defs>
		<rect id="SVGID_1_" width="500" height="358"/>
	</defs>
	<clipPath id="SVGID_2_">
		<use xlink:href="#SVGID_1_"  overflow="visible"/>
	</clipPath>
	<path clip-path="url(#SVGID_2_)" fill="#333333" d="M349.854,99.232c0-5.208-3.689-11.599-8.199-14.203l-79.018-45.62
		c-4.51-2.604-11.89-2.604-16.4,0l-79.016,45.62c-4.51,2.604-8.2,8.995-8.2,14.203v91.24c0,5.208,3.69,11.6,8.2,14.203
		l26.111,15.076v-48.196v-18.2V117.74c0-4.663,3.303-10.385,7.341-12.716l46.606-26.908c4.038-2.331,10.644-2.331,14.682,0
		l46.606,26.908c4.038,2.331,7.341,8.053,7.341,12.716v53.816c0,4.662-3.303,10.384-7.341,12.715l-46.606,26.908
		c-4.038,2.331-10.645,2.331-14.682,0l-20.04-11.57v39.719l18.998,10.97c4.51,2.604,11.89,2.604,16.4,0l79.018-45.621
		c4.51-2.604,8.199-8.995,8.199-14.203V99.232z"/>
	<path clip-path="url(#SVGID_2_)" fill="#333333" d="M230.519,162.349l20.822,12.022c1.804,1.041,4.756,1.041,6.559,0l20.822-12.022
		c1.804-1.041,3.279-3.598,3.279-5.681v-24.043c0-2.083-1.476-4.639-3.279-5.68l-20.822-12.022c-1.803-1.041-4.755-1.041-6.559,0
		l-20.822,12.022c-1.804,1.041-3.28,3.597-3.28,5.68v20.73v3.316C227.24,158.753,228.715,161.308,230.519,162.349"/>
	<path clip-path="url(#SVGID_2_)" fill="#333333" d="M85.992,277.711H70.979v42.231h4.628v-15.577h10.439
		c8.6,0,13.847-5.85,13.847-13.52C99.894,283.467,95.01,277.711,85.992,277.711 M84.954,300.193h-9.346v-18.329h9.346
		c6.486,0,10.239,3.225,10.239,9.056C95.192,296.695,91.495,300.193,84.954,300.193"/>
	<rect x="117.252" y="277.711" clip-path="url(#SVGID_2_)" fill="#333333" width="4.682" height="42.231"/>
	<path clip-path="url(#SVGID_2_)" fill="#333333" d="M160.355,316.316c-9.51,0-16.634-7.36-16.634-17.382
		c0-10.13,7.288-17.636,16.835-17.636c3.953,0,7.925,1.294,10.986,3.408l2.149-3.354c-3.753-2.751-8.49-4.244-13.299-4.244
		c-12.152,0-21.426,9.456-21.426,21.898c0,12.226,8.964,21.536,21.097,21.536c4.811,0,9.948-1.458,13.683-4.173l-2.186-3.407
		C168.664,314.95,164.456,316.316,160.355,316.316"/>
	<path clip-path="url(#SVGID_2_)" fill="#333333" d="M209.284,277.109c-12.115,0-21.516,9.201-21.516,21.698
		c0,12.335,9.164,21.735,21.425,21.735c12.243,0,21.425-9.382,21.425-21.79C230.618,286.328,221.417,277.109,209.284,277.109
		 M209.192,316.354c-9.602,0-16.67-7.524-16.67-17.527c0-10.002,7.105-17.527,16.688-17.527c9.547,0,16.634,7.489,16.634,17.509
		C225.845,308.811,218.794,316.354,209.192,316.354"/>
	<polygon clip-path="url(#SVGID_2_)" fill="#333333" points="258.947,297.605 246.813,277.71 241.365,277.71 256.487,302.16 
		256.487,319.942 261.133,319.942 261.133,302.197 276.601,277.71 271.463,277.71 	"/>
	<path clip-path="url(#SVGID_2_)" fill="#333333" d="M323.336,305.039c0,6.832-4.72,11.296-11.569,11.296
		c-6.778,0-11.57-4.355-11.57-11.296v-27.328h-4.699v27.31c0,9.347,6.522,15.523,16.159,15.523c9.62,0,16.271-6.177,16.271-15.541
		v-27.292h-4.592V305.039z"/>
	<polygon clip-path="url(#SVGID_2_)" fill="#333333" points="377.39,313.22 354.033,277.71 348.677,277.71 348.677,319.942 
		353.141,319.942 353.104,284.562 376.388,319.942 381.781,319.942 381.781,277.71 377.354,277.71 	"/>
	<polygon clip-path="url(#SVGID_2_)" fill="#333333" points="407.686,315.807 407.686,300.722 425.794,300.722 425.794,296.585 
		407.686,296.585 407.686,281.847 428.474,281.847 428.474,277.71 403.021,277.71 403.021,319.942 429.021,319.942 429.021,315.807 
			"/>
</g>
</svg>
