<?xml version="1.0" encoding="utf-8"?>
<!-- Generator: Adobe Illustrator 16.0.0, SVG Export Plug-In . SVG Version: 6.00 Build 0)  -->
<!DOCTYPE svg PUBLIC "-//W3C//DTD SVG 1.1//EN" "http://www.w3.org/Graphics/SVG/1.1/DTD/svg11.dtd">
<svg version="1.1" id="Layer_1" xmlns="http://www.w3.org/2000/svg" xmlns:xlink="http://www.w3.org/1999/xlink" x="0px" y="0px"
	 width="183.645px" height="250px" viewBox="0 0 183.645 250" enable-background="new 0 0 183.645 250" xml:space="preserve">
<g>
	<defs>
		<rect id="SVGID_1_" width="183.645" height="250"/>
	</defs>
	<clipPath id="SVGID_2_">
		<use xlink:href="#SVGID_1_"  overflow="visible"/>
	</clipPath>
	<path clip-path="url(#SVGID_2_)" d="M91.822,178.362c-3.453,0-6.906-0.894-10-2.681l-49.005-28.293
		c-6.188-3.571-10-10.175-10-17.319V73.483c0-7.145,3.812-13.748,10-17.32l49.005-28.294c6.187-3.573,13.812-3.573,20,0
		l49.005,28.294c6.188,3.572,10,10.174,10,17.32v56.586c0,7.145-3.812,13.748-10,17.319l-49.005,28.293
		C98.729,177.468,95.275,178.362,91.822,178.362 M62.817,118.522l29.005,16.746l29.005-16.746V85.03L91.822,68.284L62.817,85.03
		V118.522z"/>
	<path clip-path="url(#SVGID_2_)" d="M107.098,30.505c-2.367-1.398-6.479-3.125-9.135-3.839l-10.318-0.098
		c-2.668,0.663-6.811,2.312-9.206,3.664L37.874,53.142c-2.394,1.352-5.946,4.048-7.892,5.991l-5.244,8.887
		c-0.76,2.643-1.4,6.744-1.423,9.114c-0.022,2.37-0.144,4.309-0.269,4.309c-0.126,0-0.229,2.25-0.229,5v117.333
		c0,2.75,1.654,6.526,3.676,8.391l12.165,11.22c2.021,1.865,5.365,1.905,7.431,0.09l12.972-11.399
		c2.066-1.815,3.756-5.551,3.756-8.301V89.413c0-2.75,1.96-6.107,4.354-7.459l44.953-25.387c2.396-1.352,6.524-3.052,9.176-3.779
		l19.026-0.749c2.698,0.533,2.967-0.174,0.599-1.572L107.098,30.505z"/>
	<path clip-path="url(#SVGID_2_)" d="M36.768,54.069c9.729-5.618,21.718-5.618,31.447,0l77.053,44.487
		c8.847,5.108,14.588,14.158,15.56,24.204V73.482c0-7.145-3.812-13.747-10-17.32l-49.005-28.294c-6.188-3.573-13.813-3.573-20,0
		L32.817,56.163c-0.734,0.424-1.432,0.893-2.097,1.398L36.768,54.069z"/>
</g>
</svg>
