<svg xmlns="http://www.w3.org/2000/svg" xmlns:xlink="http://www.w3.org/1999/xlink" width="183.645" height="250"><defs><rect id="a" width="183.645" height="250"/></defs><clipPath id="b"><use xlink:href="#a" overflow="visible"/></clipPath><path clip-path="url(#b)" d="M91.822 178.362c-3.453 0-6.906-.894-10-2.681l-49.005-28.293c-6.188-3.571-10-10.175-10-17.319v-56.586c0-7.145 3.812-13.748 10-17.32l49.005-28.294c6.187-3.573 13.812-3.573 20 0l49.005 28.294c6.188 3.572 10 10.174 10 17.32v56.586c0 7.145-3.812 13.748-10 17.319l-49.005 28.293c-3.093 1.787-6.547 2.681-10 2.681m-29.005-59.84l29.005 16.746 29.005-16.746v-33.492l-29.005-16.746-29.005 16.746v33.492z"/><path clip-path="url(#b)" d="M107.098 30.505c-2.367-1.398-6.479-3.125-9.135-3.839l-10.318-.098c-2.668.663-6.811 2.312-9.206 3.664l-40.565 22.91c-2.394 1.352-5.946 4.048-7.892 5.991l-5.244 8.887c-.76 2.643-1.4 6.744-1.423 9.114-.022 2.37-.144 4.309-.269 4.309-.126 0-.229 2.25-.229 5v117.333c0 2.75 1.654 6.526 3.676 8.391l12.165 11.22c2.021 1.865 5.365 1.905 7.431.09l12.972-11.399c2.066-1.815 3.756-5.551 3.756-8.301v-114.364c0-2.75 1.96-6.107 4.354-7.459l44.953-25.387c2.396-1.352 6.524-3.052 9.176-3.779l19.026-.749c2.698.533 2.967-.174.599-1.572l-33.827-19.962z"/><path clip-path="url(#b)" d="M36.768 54.069c9.729-5.618 21.718-5.618 31.447 0l77.053 44.487c8.847 5.108 14.588 14.158 15.56 24.204v-49.278c0-7.145-3.812-13.747-10-17.32l-49.005-28.294c-6.188-3.573-13.813-3.573-20 0l-49.006 28.295c-.734.424-1.432.893-2.097 1.398l6.048-3.492z"/></svg>