<svg xmlns="http://www.w3.org/2000/svg" xmlns:xlink="http://www.w3.org/1999/xlink" width="71.721" height="119.672"><defs><rect id="a" x="-8.475" y="-586.823" width="612" height="792"/></defs><clipPath id="b"><use xlink:href="#a" overflow="visible"/></clipPath><polyline clip-path="url(#b)" stroke="#373535" stroke-width="2" stroke-linecap="round" stroke-linejoin="round" stroke-miterlimit="10" points="27.566,13.237 28.691,13.237 35.807,13.237 42.951,13.237 44.045,13.237" fill="none"/><polyline clip-path="url(#b)" stroke="#373535" stroke-width="2" stroke-linecap="round" stroke-linejoin="round" stroke-miterlimit="10" points="42.708,8.797 42.799,8.707 42.951,8.676 43.134,8.707 43.377,8.797" fill="none"/><polyline clip-path="url(#b)" stroke="#373535" stroke-width="2" stroke-linecap="round" stroke-linejoin="round" stroke-miterlimit="10" points="43.377,13.115 43.134,13.207 42.951,13.237 42.799,13.207 42.708,13.115" fill="none"/><polyline clip-path="url(#b)" stroke="#373535" stroke-width="2" stroke-linecap="round" stroke-linejoin="round" stroke-miterlimit="10" points="35.167,8.797 35.472,8.707 35.807,8.676 36.141,8.707 36.476,8.797" fill="none"/><polyline clip-path="url(#b)" stroke="#373535" stroke-width="2" stroke-linecap="round" stroke-linejoin="round" stroke-miterlimit="10" points="36.475,13.115 36.141,13.207 35.806,13.237 35.472,13.207 35.167,13.115" fill="none"/><polyline clip-path="url(#b)" stroke="#373535" stroke-width="2" stroke-linecap="round" stroke-linejoin="round" stroke-miterlimit="10" points="28.266,8.797 28.478,8.707 28.691,8.676 28.813,8.707 28.934,8.797" fill="none"/><polyline clip-path="url(#b)" stroke="#373535" stroke-width="2" stroke-linecap="round" stroke-linejoin="round" stroke-miterlimit="10" points="28.935,13.115 28.812,13.207 28.691,13.237 28.479,13.207 28.267,13.115" fill="none"/><line clip-path="url(#b)" stroke="#373535" stroke-width="2" stroke-linecap="round" stroke-linejoin="round" stroke-miterlimit="10" x1="27.566" y1="8.676" x2="28.691" y2="8.676" fill="none"/><line clip-path="url(#b)" stroke="#373535" stroke-width="2" stroke-linecap="round" stroke-linejoin="round" stroke-miterlimit="10" x1="27.445" y1="8.797" x2="28.266" y2="8.797" fill="none"/><line clip-path="url(#b)" stroke="#373535" stroke-width="2" stroke-linecap="round" stroke-linejoin="round" stroke-miterlimit="10" x1="28.691" y1="8.676" x2="35.807" y2="8.676" fill="none"/><line clip-path="url(#b)" stroke="#373535" stroke-width="2" stroke-linecap="round" stroke-linejoin="round" stroke-miterlimit="10" x1="28.935" y1="8.797" x2="35.167" y2="8.797" fill="none"/><line clip-path="url(#b)" stroke="#373535" stroke-width="2" stroke-linecap="round" stroke-linejoin="round" stroke-miterlimit="10" x1="35.806" y1="8.676" x2="42.951" y2="8.676" fill="none"/><line clip-path="url(#b)" stroke="#373535" stroke-width="2" stroke-linecap="round" stroke-linejoin="round" stroke-miterlimit="10" x1="36.475" y1="8.797" x2="42.708" y2="8.797" fill="none"/><line clip-path="url(#b)" stroke="#373535" stroke-width="2" stroke-linecap="round" stroke-linejoin="round" stroke-miterlimit="10" x1="27.445" y1="13.115" x2="28.266" y2="13.115" fill="none"/><line clip-path="url(#b)" stroke="#373535" stroke-width="2" stroke-linecap="round" stroke-linejoin="round" stroke-miterlimit="10" x1="28.935" y1="13.115" x2="35.167" y2="13.115" fill="none"/><line clip-path="url(#b)" stroke="#373535" stroke-width="2" stroke-linecap="round" stroke-linejoin="round" stroke-miterlimit="10" x1="36.475" y1="13.115" x2="42.708" y2="13.115" fill="none"/><line clip-path="url(#b)" stroke="#373535" stroke-width="2" stroke-linecap="round" stroke-linejoin="round" stroke-miterlimit="10" x1="42.951" y1="8.676" x2="44.046" y2="8.676" fill="none"/><line clip-path="url(#b)" stroke="#373535" stroke-width="2" stroke-linecap="round" stroke-linejoin="round" stroke-miterlimit="10" x1="43.377" y1="8.797" x2="44.168" y2="8.797" fill="none"/><line clip-path="url(#b)" stroke="#373535" stroke-width="2" stroke-linecap="round" stroke-linejoin="round" stroke-miterlimit="10" x1="43.377" y1="13.115" x2="44.168" y2="13.115" fill="none"/><line clip-path="url(#b)" stroke="#373535" stroke-width="2" stroke-linecap="round" stroke-linejoin="round" stroke-miterlimit="10" x1="27.566" y1="8.676" x2="27.444" y2="8.797" fill="none"/><line clip-path="url(#b)" stroke="#373535" stroke-width="2" stroke-linecap="round" stroke-linejoin="round" stroke-miterlimit="10" x1="27.566" y1="13.237" x2="27.444" y2="13.115" fill="none"/><line clip-path="url(#b)" stroke="#373535" stroke-width="2" stroke-linecap="round" stroke-linejoin="round" stroke-miterlimit="10" x1="44.046" y1="8.676" x2="44.168" y2="8.797" fill="none"/><line clip-path="url(#b)" stroke="#373535" stroke-width="2" stroke-linecap="round" stroke-linejoin="round" stroke-miterlimit="10" x1="44.046" y1="13.237" x2="44.168" y2="13.115" fill="none"/><line clip-path="url(#b)" stroke="#373535" stroke-width="2" stroke-linecap="round" stroke-linejoin="round" stroke-miterlimit="10" x1="42.708" y1="13.115" x2="42.708" y2="8.797" fill="none"/><line clip-path="url(#b)" stroke="#373535" stroke-width="2" stroke-linecap="round" stroke-linejoin="round" stroke-miterlimit="10" x1="43.377" y1="8.797" x2="43.377" y2="13.115" fill="none"/><line clip-path="url(#b)" stroke="#373535" stroke-width="2" stroke-linecap="round" stroke-linejoin="round" stroke-miterlimit="10" x1="35.167" y1="13.115" x2="35.167" y2="8.797" fill="none"/><line clip-path="url(#b)" stroke="#373535" stroke-width="2" stroke-linecap="round" stroke-linejoin="round" stroke-miterlimit="10" x1="36.475" y1="8.797" x2="36.475" y2="13.115" fill="none"/><line clip-path="url(#b)" stroke="#373535" stroke-width="2" stroke-linecap="round" stroke-linejoin="round" stroke-miterlimit="10" x1="28.266" y1="13.115" x2="28.266" y2="8.797" fill="none"/><line clip-path="url(#b)" stroke="#373535" stroke-width="2" stroke-linecap="round" stroke-linejoin="round" stroke-miterlimit="10" x1="28.935" y1="8.797" x2="28.935" y2="13.115" fill="none"/><line clip-path="url(#b)" stroke="#373535" stroke-width="2" stroke-linecap="round" stroke-linejoin="round" stroke-miterlimit="10" x1="27.445" y1="13.115" x2="27.445" y2="8.797" fill="none"/><line clip-path="url(#b)" stroke="#373535" stroke-width="2" stroke-linecap="round" stroke-linejoin="round" stroke-miterlimit="10" x1="44.167" y1="13.115" x2="44.167" y2="8.797" fill="none"/><line clip-path="url(#b)" stroke="#373535" stroke-width="2" stroke-linecap="round" stroke-linejoin="round" stroke-miterlimit="10" x1="57.363" y1="14.543" x2="57.363" y2="13.997" fill="none"/><line clip-path="url(#b)" stroke="#373535" stroke-width="2" stroke-linecap="round" stroke-linejoin="round" stroke-miterlimit="10" x1="14.25" y1="13.997" x2="14.25" y2="14.543" fill="none"/><line clip-path="url(#b)" stroke="#373535" stroke-width="2" stroke-linecap="round" stroke-linejoin="round" stroke-miterlimit="10" x1="14.25" y1="13.997" x2="14.279" y2="13.784" fill="none"/><line clip-path="url(#b)" stroke="#373535" stroke-width="2" stroke-linecap="round" stroke-linejoin="round" stroke-miterlimit="10" x1="57.333" y1="13.784" x2="57.362" y2="13.997" fill="none"/><line clip-path="url(#b)" stroke="#373535" stroke-width="2" stroke-linecap="round" stroke-linejoin="round" stroke-miterlimit="10" x1="14.25" y1="14.543" x2="57.362" y2="14.543" fill="none"/><line clip-path="url(#b)" stroke="#373535" stroke-width="2" stroke-linecap="round" stroke-linejoin="round" stroke-miterlimit="10" x1="14.28" y1="13.784" x2="57.333" y2="13.784" fill="none"/><line clip-path="url(#b)" stroke="#373535" stroke-width="2" stroke-linecap="round" stroke-linejoin="round" stroke-miterlimit="10" x1="55.265" y1="13.784" x2="55.265" y2="12.325" fill="none"/><polyline clip-path="url(#b)" stroke="#373535" stroke-width="2" stroke-linecap="round" stroke-linejoin="round" stroke-miterlimit="10" points="52.985,13.784 52.985,12.325 55.265,12.325" fill="none"/><line clip-path="url(#b)" stroke="#373535" stroke-width="2" stroke-linecap="round" stroke-linejoin="round" stroke-miterlimit="10" x1="55.265" y1="13.207" x2="55.417" y2="13.207" fill="none"/><line clip-path="url(#b)" stroke="#373535" stroke-width="2" stroke-linecap="round" stroke-linejoin="round" stroke-miterlimit="10" x1="16.347" y1="13.784" x2="16.347" y2="12.325" fill="none"/><polyline clip-path="url(#b)" stroke="#373535" stroke-width="2" stroke-linecap="round" stroke-linejoin="round" stroke-miterlimit="10" points="18.628,13.784 18.628,12.325 16.347,12.325" fill="none"/><line clip-path="url(#b)" stroke="#373535" stroke-width="2" stroke-linecap="round" stroke-linejoin="round" stroke-miterlimit="10" x1="16.347" y1="13.207" x2="16.225" y2="13.207" fill="none"/><line clip-path="url(#b)" stroke="#373535" stroke-width="2" stroke-linecap="round" stroke-linejoin="round" stroke-miterlimit="10" x1="57.697" y1="15.973" x2="57.697" y2="12.325" fill="none"/><polyline clip-path="url(#b)" stroke="#373535" stroke-width="2" stroke-linecap="round" stroke-linejoin="round" stroke-miterlimit="10" points="55.265,12.325 55.417,12.325 55.417,13.784" fill="none"/><line clip-path="url(#b)" stroke="#373535" stroke-width="2" stroke-linecap="round" stroke-linejoin="round" stroke-miterlimit="10" x1="55.265" y1="13.084" x2="55.417" y2="13.084" fill="none"/><line clip-path="url(#b)" stroke="#373535" stroke-width="2" stroke-linecap="round" stroke-linejoin="round" stroke-miterlimit="10" x1="55.417" y1="12.325" x2="57.697" y2="12.325" fill="none"/><line clip-path="url(#b)" stroke="#373535" stroke-width="2" stroke-linecap="round" stroke-linejoin="round" stroke-miterlimit="10" x1="57.424" y1="15.973" x2="57.697" y2="15.973" fill="none"/><line clip-path="url(#b)" stroke="#373535" stroke-width="2" stroke-linecap="round" stroke-linejoin="round" stroke-miterlimit="10" x1="16.226" y1="12.325" x2="16.348" y2="12.325" fill="none"/><line clip-path="url(#b)" stroke="#373535" stroke-width="2" stroke-linecap="round" stroke-linejoin="round" stroke-miterlimit="10" x1="16.226" y1="13.084" x2="16.348" y2="13.084" fill="none"/><line clip-path="url(#b)" stroke="#373535" stroke-width="2" stroke-linecap="round" stroke-linejoin="round" stroke-miterlimit="10" x1="44.167" y1="12.325" x2="52.984" y2="12.325" fill="none"/><line clip-path="url(#b)" stroke="#373535" stroke-width="2" stroke-linecap="round" stroke-linejoin="round" stroke-miterlimit="10" x1="18.628" y1="12.325" x2="27.445" y2="12.325" fill="none"/><line clip-path="url(#b)" stroke="#373535" stroke-width="2" stroke-linecap="round" stroke-linejoin="round" stroke-miterlimit="10" x1="44.167" y1="13.084" x2="52.984" y2="13.084" fill="none"/><line clip-path="url(#b)" stroke="#373535" stroke-width="2" stroke-linecap="round" stroke-linejoin="round" stroke-miterlimit="10" x1="18.628" y1="13.084" x2="27.445" y2="13.084" fill="none"/><line clip-path="url(#b)" stroke="#373535" stroke-width="2" stroke-linecap="round" stroke-linejoin="round" stroke-miterlimit="10" x1="16.226" y1="13.084" x2="16.348" y2="13.084" fill="none"/><line clip-path="url(#b)" stroke="#373535" stroke-width="2" stroke-linecap="round" stroke-linejoin="round" stroke-miterlimit="10" x1="18.628" y1="13.084" x2="27.445" y2="13.084" fill="none"/><line clip-path="url(#b)" stroke="#373535" stroke-width="2" stroke-linecap="round" stroke-linejoin="round" stroke-miterlimit="10" x1="44.167" y1="13.084" x2="52.984" y2="13.084" fill="none"/><line clip-path="url(#b)" stroke="#373535" stroke-width="2" stroke-linecap="round" stroke-linejoin="round" stroke-miterlimit="10" x1="55.265" y1="13.084" x2="55.417" y2="13.084" fill="none"/><line clip-path="url(#b)" stroke="#373535" stroke-width="2" stroke-linecap="round" stroke-linejoin="round" stroke-miterlimit="10" x1="16.226" y1="13.784" x2="16.226" y2="12.325" fill="none"/><polyline clip-path="url(#b)" stroke="#373535" stroke-width="2" stroke-linecap="round" stroke-linejoin="round" stroke-miterlimit="10" points="14.188,15.973 13.945,15.973 13.945,12.325 16.226,12.325" fill="none"/><polyline clip-path="url(#b)" stroke="#373535" stroke-width="2" stroke-linecap="round" stroke-linejoin="round" stroke-miterlimit="10" points="57.424,16.034 57.424,16.003 57.424,15.913 57.424,15.791 57.393,15.608 57.393,15.395 57.393,15.122 57.363,14.847 57.363,14.543" fill="none"/><polyline clip-path="url(#b)" stroke="#373535" stroke-width="2" stroke-linecap="round" stroke-linejoin="round" stroke-miterlimit="10" points="14.28,14.543 14.25,14.848 14.25,15.122 14.25,15.395 14.219,15.608 14.219,15.791 14.189,15.913 14.189,16.003 14.189,16.034" fill="none"/><line clip-path="url(#b)" stroke="#373535" stroke-width="2" stroke-linecap="round" stroke-linejoin="round" stroke-miterlimit="10" x1="9.658" y1="103.69" x2="61.984" y2="103.69" fill="none"/><line clip-path="url(#b)" stroke="#373535" stroke-width="2" stroke-linecap="round" stroke-linejoin="round" stroke-miterlimit="10" x1="58.123" y1="81.769" x2="61.984" y2="103.69" fill="none"/><line clip-path="url(#b)" stroke="#373535" stroke-width="2" stroke-linecap="round" stroke-linejoin="round" stroke-miterlimit="10" x1="13.52" y1="81.769" x2="9.659" y2="103.69" fill="none"/><path clip-path="url(#b)" stroke="#373535" stroke-width="2" stroke-linecap="round" stroke-linejoin="round" stroke-miterlimit="10" d="M57.454 72.778c0 3.01.224 6.014.671 8.99" fill="none"/><path clip-path="url(#b)" stroke="#373535" stroke-width="2" stroke-linecap="round" stroke-linejoin="round" stroke-miterlimit="10" d="M13.515 81.786c.448-2.977.673-5.98.674-8.99" fill="none"/><line clip-path="url(#b)" stroke="#373535" stroke-width="2" stroke-linecap="round" stroke-linejoin="round" stroke-miterlimit="10" x1="14.188" y1="72.769" x2="14.188" y2="16.034" fill="none"/><line clip-path="url(#b)" stroke="#373535" stroke-width="2" stroke-linecap="round" stroke-linejoin="round" stroke-miterlimit="10" x1="57.424" y1="72.769" x2="57.424" y2="16.034" fill="none"/><polyline clip-path="url(#b)" stroke="#373535" stroke-width="2" stroke-linecap="round" stroke-linejoin="round" stroke-miterlimit="10" points="21.516,106.974 21.516,107.034 23.401,107.034 23.401,106.974" fill="none"/><polyline clip-path="url(#b)" stroke="#373535" stroke-width="2" stroke-linecap="round" stroke-linejoin="round" stroke-miterlimit="10" points="48.242,106.974 48.242,107.034 50.096,107.034 50.096,106.974" fill="none"/><line clip-path="url(#b)" stroke="#373535" stroke-width="2" stroke-linecap="round" stroke-linejoin="round" stroke-miterlimit="10" x1="31.246" y1="13.297" x2="40.367" y2="13.297" fill="none"/><line clip-path="url(#b)" stroke="#373535" stroke-width="2" stroke-linecap="round" stroke-linejoin="round" stroke-miterlimit="10" x1="39.576" y1="13.297" x2="39.576" y2="13.784" fill="none"/><line clip-path="url(#b)" stroke="#373535" stroke-width="2" stroke-linecap="round" stroke-linejoin="round" stroke-miterlimit="10" x1="32.066" y1="13.297" x2="32.066" y2="13.784" fill="none"/><polyline clip-path="url(#b)" stroke="#373535" stroke-width="2" stroke-linecap="round" stroke-linejoin="round" stroke-miterlimit="10" points="30.729,13.784 30.729,13.784 40.883,13.784" fill="none"/><line clip-path="url(#b)" stroke="#373535" stroke-width="2" stroke-linecap="round" stroke-linejoin="round" stroke-miterlimit="10" x1="40.367" y1="13.237" x2="40.367" y2="13.298" fill="none"/><line clip-path="url(#b)" stroke="#373535" stroke-width="2" stroke-linecap="round" stroke-linejoin="round" stroke-miterlimit="10" x1="31.246" y1="13.237" x2="31.246" y2="13.298" fill="none"/><line clip-path="url(#b)" stroke="#373535" stroke-width="2" stroke-linecap="round" stroke-linejoin="round" stroke-miterlimit="10" x1="12.699" y1="106.974" x2="58.914" y2="106.974" fill="none"/><line clip-path="url(#b)" stroke="#373535" stroke-width="2" stroke-linecap="round" stroke-linejoin="round" stroke-miterlimit="10" x1="9.658" y1="103.933" x2="61.954" y2="103.933" fill="none"/><path clip-path="url(#b)" stroke="#373535" stroke-width="2" stroke-linecap="round" stroke-linejoin="round" stroke-miterlimit="10" d="M58.928 107.003c1.687 0 3.056-1.367 3.056-3.055" fill="none"/><path clip-path="url(#b)" stroke="#373535" stroke-width="2" stroke-linecap="round" stroke-linejoin="round" stroke-miterlimit="10" d="M9.658 103.948c0 1.686 1.368 3.055 3.055 3.055" fill="none"/><line clip-path="url(#b)" stroke="#373535" stroke-width="2" stroke-linecap="round" stroke-linejoin="round" stroke-miterlimit="10" x1="9.658" y1="103.933" x2="9.658" y2="103.69" fill="none"/><line clip-path="url(#b)" stroke="#373535" stroke-width="2" stroke-linecap="round" stroke-linejoin="round" stroke-miterlimit="10" x1="61.954" y1="103.933" x2="61.954" y2="103.69" fill="none"/><polyline clip-path="url(#b)" stroke="#373535" stroke-width="2" stroke-linecap="round" stroke-linejoin="round" stroke-miterlimit="10" points="34.165,108.401 35.807,108.401 37.479,108.401" fill="none"/><line clip-path="url(#b)" stroke="#373535" stroke-width="2" stroke-linecap="round" stroke-linejoin="round" stroke-miterlimit="10" x1="35.806" y1="108.677" x2="35.806" y2="108.401" fill="none"/><line clip-path="url(#b)" stroke="#373535" stroke-width="2" stroke-linecap="round" stroke-linejoin="round" stroke-miterlimit="10" x1="34.165" y1="108.401" x2="33.92" y2="106.974" fill="none"/><line clip-path="url(#b)" stroke="#373535" stroke-width="2" stroke-linecap="round" stroke-linejoin="round" stroke-miterlimit="10" x1="37.479" y1="108.401" x2="37.722" y2="106.974" fill="none"/><line clip-path="url(#b)" stroke="#373535" stroke-width="2" stroke-linecap="round" stroke-linejoin="round" stroke-miterlimit="10" x1="34.499" y1="108.677" x2="35.806" y2="108.677" fill="none"/><path clip-path="url(#b)" stroke="#373535" stroke-width="2" stroke-linecap="round" stroke-linejoin="round" stroke-miterlimit="10" d="M34.169 108.388c.03.166.175.289.345.289" fill="none"/><line clip-path="url(#b)" stroke="#373535" stroke-width="2" stroke-linecap="round" stroke-linejoin="round" stroke-miterlimit="10" x1="35.806" y1="108.677" x2="37.114" y2="108.677" fill="none"/><path clip-path="url(#b)" stroke="#373535" stroke-width="2" stroke-linecap="round" stroke-linejoin="round" stroke-miterlimit="10" d="M37.129 108.677c.169 0 .315-.123.344-.289" fill="none"/><line clip-path="url(#b)" stroke="#373535" stroke-width="2" stroke-linecap="round" stroke-linejoin="round" stroke-miterlimit="10" x1="52.407" y1="108.401" x2="55.721" y2="108.401" fill="none"/><path clip-path="url(#b)" stroke="#373535" stroke-width="2" stroke-linecap="round" stroke-linejoin="round" stroke-miterlimit="10" d="M55.372 108.677c.169 0 .314-.123.344-.289" fill="none"/><path clip-path="url(#b)" stroke="#373535" stroke-width="2" stroke-linecap="round" stroke-linejoin="round" stroke-miterlimit="10" d="M52.412 108.388c.03.166.175.289.344.289" fill="none"/><line clip-path="url(#b)" stroke="#373535" stroke-width="2" stroke-linecap="round" stroke-linejoin="round" stroke-miterlimit="10" x1="52.407" y1="108.401" x2="52.164" y2="106.974" fill="none"/><line clip-path="url(#b)" stroke="#373535" stroke-width="2" stroke-linecap="round" stroke-linejoin="round" stroke-miterlimit="10" x1="55.721" y1="108.401" x2="55.964" y2="106.974" fill="none"/><line clip-path="url(#b)" stroke="#373535" stroke-width="2" stroke-linecap="round" stroke-linejoin="round" stroke-miterlimit="10" x1="52.741" y1="108.677" x2="55.356" y2="108.677" fill="none"/><line clip-path="url(#b)" stroke="#373535" stroke-width="2" stroke-linecap="round" stroke-linejoin="round" stroke-miterlimit="10" x1="15.922" y1="108.401" x2="19.236" y2="108.401" fill="none"/><path clip-path="url(#b)" stroke="#373535" stroke-width="2" stroke-linecap="round" stroke-linejoin="round" stroke-miterlimit="10" d="M15.927 108.388c.029.166.174.289.344.289" fill="none"/><path clip-path="url(#b)" stroke="#373535" stroke-width="2" stroke-linecap="round" stroke-linejoin="round" stroke-miterlimit="10" d="M18.886 108.677c.169 0 .315-.123.344-.289" fill="none"/><line clip-path="url(#b)" stroke="#373535" stroke-width="2" stroke-linecap="round" stroke-linejoin="round" stroke-miterlimit="10" x1="15.922" y1="108.401" x2="15.679" y2="106.974" fill="none"/><line clip-path="url(#b)" stroke="#373535" stroke-width="2" stroke-linecap="round" stroke-linejoin="round" stroke-miterlimit="10" x1="19.236" y1="108.401" x2="19.479" y2="106.974" fill="none"/><line clip-path="url(#b)" stroke="#373535" stroke-width="2" stroke-linecap="round" stroke-linejoin="round" stroke-miterlimit="10" x1="16.256" y1="108.677" x2="18.871" y2="108.677" fill="none"/></svg>